<svg width="20" height="20" viewBox="0 0 20 20" fill="none" xmlns="http://www.w3.org/2000/svg">
<mask id="mask0_93_269" style="mask-type:alpha" maskUnits="userSpaceOnUse" x="0" y="0" width="20" height="20">
<rect width="20" height="20" fill="#D9D9D9"/>
</mask>
<g mask="url(#mask0_93_269)">
<path d="M5.00004 18.3333C4.54171 18.3333 4.14935 18.1701 3.82296 17.8437C3.49657 17.5173 3.33337 17.125 3.33337 16.6666V3.33329C3.33337 2.87496 3.49657 2.4826 3.82296 2.15621C4.14935 1.82982 4.54171 1.66663 5.00004 1.66663H15C15.4584 1.66663 15.8507 1.82982 16.1771 2.15621C16.5035 2.4826 16.6667 2.87496 16.6667 3.33329V16.6666C16.6667 17.125 16.5035 17.5173 16.1771 17.8437C15.8507 18.1701 15.4584 18.3333 15 18.3333H5.00004ZM5.00004 16.6666H15V3.33329H13.3334V8.43746C13.3334 8.60413 13.2639 8.72565 13.125 8.80204C12.9862 8.87843 12.8473 8.87496 12.7084 8.79163L11.6875 8.16663C11.5487 8.08329 11.4063 8.04163 11.2605 8.04163C11.1146 8.04163 10.9723 8.08329 10.8334 8.16663L9.81254 8.79163C9.67365 8.87496 9.53129 8.87843 9.38546 8.80204C9.23962 8.72565 9.16671 8.60413 9.16671 8.43746V3.33329H5.00004V16.6666Z" fill="#262626"/>
</g>
</svg>
